<?xml version="1.0" encoding="utf-8"?>
<!-- Svg Vector Icons : http://www.onlinewebfonts.com/icon -->
<!DOCTYPE svg PUBLIC "-//W3C//DTD SVG 1.1//EN" "http://www.w3.org/Graphics/SVG/1.1/DTD/svg11.dtd">
<svg version="1.1" xmlns="http://www.w3.org/2000/svg" xmlns:xlink="http://www.w3.org/1999/xlink" x="0px" y="0px" viewBox="0 0 1000 1000" enable-background="new 0 0 1000 1000" xml:space="preserve">
<metadata> Svg Vector Icons : http://www.onlinewebfonts.com/icon </metadata>
<g><path d="M364.1,593c33.6,36.9,82.1,60.2,135.9,60.2c53.8,0,102.2-23.2,135.9-60.2c75.8,37.6,133.9,105.7,158.1,188.3C717.1,853.7,613.7,898.1,500,898.1s-217.1-44.4-293.9-116.9C230.3,698.7,288.3,630.6,364.1,593z"/><path d="M500,224.4c101.5,0,183.7,82.3,183.7,183.8c0,101.5-82.3,183.8-183.7,183.8c-101.5,0-183.8-82.3-183.8-183.8C316.3,306.6,398.5,224.4,500,224.4z"/><path d="M500,10c270.2,0,490,219.8,490,490S770.2,990,500,990S10,770.2,10,500S229.8,10,500,10z M928.8,500c0-236.4-192.3-428.8-428.7-428.8C263.6,71.2,71.2,263.6,71.2,500c0,236.4,192.3,428.7,428.8,428.7C736.4,928.8,928.8,736.4,928.8,500z"/></g>
</svg>